<?xml version="1.0" encoding="UTF-8" standalone="no"?>
<svg
   height="500"
   id="Layer_1"
   version="1.1"
   viewBox="0 0 500.02643 500"
   width="500.02643"
   xml:space="preserve"
   sodipodi:docname="github.svg"
   inkscape:version="1.1.2 (0a00cf5339, 2022-02-04)"
   xmlns:inkscape="http://www.inkscape.org/namespaces/inkscape"
   xmlns:sodipodi="http://sodipodi.sourceforge.net/DTD/sodipodi-0.dtd"
   xmlns="http://www.w3.org/2000/svg"
   xmlns:svg="http://www.w3.org/2000/svg"><defs
     id="defs11" /><sodipodi:namedview
     id="namedview9"
     pagecolor="#ffffff"
     bordercolor="#666666"
     borderopacity="1.0"
     inkscape:pageshadow="2"
     inkscape:pageopacity="0.0"
     inkscape:pagecheckerboard="0"
     showgrid="false"
     scale-x="1"
     fit-margin-top="0"
     fit-margin-left="0"
     fit-margin-right="0"
     fit-margin-bottom="0"
     inkscape:zoom="1.6464844"
     inkscape:cx="-43.122182"
     inkscape:cy="209.53736"
     inkscape:window-width="2560"
     inkscape:window-height="1412"
     inkscape:window-x="1920"
     inkscape:window-y="0"
     inkscape:window-maximized="1"
     inkscape:current-layer="Layer_1" /><path
     class="st0"
     d="M 250.01321,0 C 111.94788,0 0,114.73821 0,256.37515 0,369.66239 71.65557,465.6496 170.99118,499.57997 c 12.50066,2.34387 17.07679,-5.58065 17.07679,-12.38905 0,-6.13872 -0.22322,-22.21099 -0.33484,-43.6407 -69.53492,15.51422 -84.26784,-34.37681 -84.26784,-34.37681 -11.38453,-29.57746 -27.79165,-37.50199 -27.79165,-37.50199 -22.657446,-15.96066 1.6742,-15.62582 1.6742,-15.62582 25.11293,1.78581 38.28327,26.45229 38.28327,26.45229 22.32261,39.17618 58.48523,27.90326 72.7717,21.31809 2.23226,-16.51873 8.70582,-27.90326 15.84905,-34.2652 -55.47168,-6.47356 -113.8453,-28.46133 -113.8453,-126.6808 0,-28.01488 9.71034,-50.89555 25.671,-68.75364 -2.5671,-6.47355 -11.1613,-32.591 2.45549,-67.86073 0,0 20.98325,-6.92 68.75363,26.22907 19.97874,-5.69227 41.29683,-8.48259 62.61492,-8.59421 21.20648,0.11162 42.63618,2.90194 62.61491,8.59421 47.77038,-33.14907 68.64202,-26.22907 68.64202,-26.22907 13.61679,35.26973 5.02259,61.38718 2.45549,67.86073 15.96066,17.9697 25.671,40.85038 25.671,68.75364 0,98.4427 -58.48523,120.09563 -114.18014,126.45757 8.92904,7.92453 16.96518,23.55035 16.96518,47.43554 0,34.26521 -0.33484,61.94524 -0.33484,70.31622 0,6.80839 4.46452,14.84453 17.18841,12.27743 C 428.48246,465.53799 500.02642,369.55078 500.02642,256.37515 500.02642,114.73821 388.07854,0 250.01321,0 Z"
     id="path4"
     style="stroke-width:1.11613" /></svg>
