<?xml version="1.0" encoding="UTF-8" standalone="no"?>
<svg
   height="500"
   style="clip-rule:evenodd;fill-rule:evenodd;stroke-linejoin:round;stroke-miterlimit:2"
   version="1.1"
   viewBox="0 0 500 500"
   width="500"
   xml:space="preserve"
   id="svg4"
   sodipodi:docname="linkedin.svg"
   inkscape:version="1.1.2 (0a00cf5339, 2022-02-04)"
   xmlns:inkscape="http://www.inkscape.org/namespaces/inkscape"
   xmlns:sodipodi="http://sodipodi.sourceforge.net/DTD/sodipodi-0.dtd"
   xmlns="http://www.w3.org/2000/svg"
   xmlns:svg="http://www.w3.org/2000/svg"><defs
     id="defs8" /><sodipodi:namedview
     id="namedview6"
     pagecolor="#ffffff"
     bordercolor="#666666"
     borderopacity="1.0"
     inkscape:pageshadow="2"
     inkscape:pageopacity="0.0"
     inkscape:pagecheckerboard="0"
     showgrid="false"
     fit-margin-top="0"
     fit-margin-left="0"
     fit-margin-right="0"
     fit-margin-bottom="0"
     inkscape:zoom="1.6464844"
     inkscape:cx="256.30368"
     inkscape:cy="255.69632"
     inkscape:window-width="2560"
     inkscape:window-height="1412"
     inkscape:window-x="1920"
     inkscape:window-y="0"
     inkscape:window-maximized="1"
     inkscape:current-layer="svg4" /><path
     d="M 250,0 C 387.97852,0 500,112.02148 500,250 500,387.97852 387.97852,500 250,500 112.02148,500 0,387.97852 0,250 0,112.02148 112.02148,0 250,0 Z M 171.83887,390.49902 V 195.26367 h -64.90625 v 195.23535 z m 234.0039,0 V 278.54004 c 0,-59.96973 -32.01855,-87.86719 -74.71582,-87.86719 -34.42871,0 -49.85058,18.93457 -58.48535,32.2334 v -27.64258 h -64.88965 c 0.86035,18.31738 0,195.23535 0,195.23535 h 64.88867 v -109.0332 c 0,-5.83594 0.41993,-11.66992 2.13965,-15.84082 4.68262,-11.65527 15.36817,-23.72949 33.2959,-23.72949 23.4707,0 32.87403,17.91015 32.87403,44.14453 V 390.49902 Z M 139.82422,101.12305 c -22.20703,0 -36.71582,14.59961 -36.71582,33.73535 0,18.73242 14.06738,33.73437 35.85644,33.73437 h 0.41895 c 22.63183,0 36.71875,-15.00195 36.71875,-33.73437 -0.41992,-19.13574 -14.08594,-33.73535 -36.27832,-33.73535 z"
     id="path2"
     style="stroke-width:0.976562" /></svg>
