<svg xmlns="http://www.w3.org/2000/svg" xmlns:xlink="http://www.w3.org/1999/xlink" version="1.1" x="0px" y="0px" viewBox="0 0 100 100" enable-background="new 0 0 100 100" xml:space="preserve"><path d="M50,5C25.2,5,5,25.2,5,50c0,24.9,20.2,45,45,45c24.9,0,45-20.1,45-45C95,25.2,74.9,5,50,5L50,5z M34.1,49.8l0.4,10.5  c-2.3-1.6-3.5-3.5-3.5-5.3v-6.7L34.1,49.8z M38.2,78.8c0,1.4-0.9,2.5-2.2,2.7c-1.3,0.1-2.6-0.9-2.6-2.7l0.8-9.9  c0.1-0.9,0.8-1.6,1.7-1.5c0.9,0.2,1.5,0.8,1.5,1.5L38.2,78.8z M50.6,58.1c0.2,0,0.3-0.1,0.5-0.1l19.4-9.7v6.8c0,2.3-2,4.7-5.6,6.5  c-7.5,3.8-19.7,3.8-27.6,0.3l0.3-10.1L50.1,58C50.4,58.1,50.5,58.1,50.6,58.1L50.6,58.1z M35,47.5c-0.3,0.2-0.5,0.4-0.7,0.6L20.3,41  l30.3-15.1L80.9,41l-30.3,15L38.2,50l14.6-7.3c0.9-0.5,1.3-1.5,0.9-2.5c-0.6-0.9-1.6-1.4-2.6-0.9L35,47.5z"></path></svg>