<?xml version="1.0" encoding="UTF-8" standalone="no"?>
<svg
   version="1.1"
   x="0px"
   y="0px"
   viewBox="0 0 500 500"
   enable-background="new 0 0 100 100"
   xml:space="preserve"
   id="svg4"
   sodipodi:docname="scholar.svg"
   width="500"
   height="500"
   inkscape:version="1.1.2 (0a00cf5339, 2022-02-04)"
   xmlns:inkscape="http://www.inkscape.org/namespaces/inkscape"
   xmlns:sodipodi="http://sodipodi.sourceforge.net/DTD/sodipodi-0.dtd"
   xmlns="http://www.w3.org/2000/svg"
   xmlns:svg="http://www.w3.org/2000/svg"><defs
     id="defs8" /><sodipodi:namedview
     id="namedview6"
     pagecolor="#ffffff"
     bordercolor="#666666"
     borderopacity="1.0"
     inkscape:pageshadow="2"
     inkscape:pageopacity="0.0"
     inkscape:pagecheckerboard="0"
     showgrid="false"
     inkscape:zoom="1.05375"
     inkscape:cx="-24.673784"
     inkscape:cy="240.0949"
     inkscape:window-width="2560"
     inkscape:window-height="1412"
     inkscape:window-x="1920"
     inkscape:window-y="0"
     inkscape:window-maximized="1"
     inkscape:current-layer="svg4"
     fit-margin-top="0"
     fit-margin-left="0"
     fit-margin-right="0"
     fit-margin-bottom="0" /><path
     d="M 250,0 C 112.22222,0 0,112.22222 0,250 0,388.33333 112.22222,500 250,500 388.33333,500 500,388.33333 500,250 500,112.22222 388.33333,0 250,0 Z m -88.33333,248.88889 2.22222,58.33333 c -12.77778,-8.88889 -19.44445,-19.44444 -19.44445,-29.44444 V 240.55556 Z M 184.44444,410 c 0,7.77778 -5,13.88889 -12.22222,15 -7.22222,0.55556 -14.44444,-5 -14.44444,-15 l 4.44444,-55 c 0.55556,-5 4.44445,-8.88889 9.44445,-8.33333 5,1.11111 8.33333,4.44444 8.33333,8.33333 z m 68.88889,-115 c 1.11111,0 1.66667,-0.55556 2.77778,-0.55556 l 107.77778,-53.88888 v 37.77777 c 0,12.77778 -11.11111,26.11111 -31.11111,36.11111 -41.66667,21.11112 -109.44445,21.11112 -153.33334,1.66667 L 181.11111,260 250.55556,294.44444 C 252.22222,295 252.77778,295 253.33333,295 Z m -86.66666,-58.88889 c -1.66667,1.11111 -2.77778,2.22222 -3.88889,3.33333 L 85,200 253.33333,116.11111 421.66667,200 253.33333,283.33333 184.44444,250 265.55556,209.44444 c 5,-2.77777 7.22222,-8.33333 5,-13.88888 -3.33334,-5 -8.88889,-7.77778 -14.44445,-5 z"
     id="path2"
     style="stroke-width:5.55556" /></svg>
