<?xml version="1.0" encoding="UTF-8" standalone="no"?>
<svg
   height="500"
   style="clip-rule:evenodd;fill-rule:evenodd;stroke-linejoin:round;stroke-miterlimit:2"
   version="1.1"
   viewBox="0 0 500 500"
   width="500"
   xml:space="preserve"
   id="svg4"
   sodipodi:docname="twitter.svg"
   inkscape:version="1.1.2 (0a00cf5339, 2022-02-04)"
   xmlns:inkscape="http://www.inkscape.org/namespaces/inkscape"
   xmlns:sodipodi="http://sodipodi.sourceforge.net/DTD/sodipodi-0.dtd"
   xmlns="http://www.w3.org/2000/svg"
   xmlns:svg="http://www.w3.org/2000/svg"><defs
     id="defs8" /><sodipodi:namedview
     id="namedview6"
     pagecolor="#ffffff"
     bordercolor="#666666"
     borderopacity="1.0"
     inkscape:pageshadow="2"
     inkscape:pageopacity="0.0"
     inkscape:pagecheckerboard="0"
     showgrid="false"
     fit-margin-top="0"
     fit-margin-left="0"
     fit-margin-right="0"
     fit-margin-bottom="0"
     inkscape:zoom="1.6464844"
     inkscape:cx="256.30368"
     inkscape:cy="255.69632"
     inkscape:window-width="2560"
     inkscape:window-height="1412"
     inkscape:window-x="1920"
     inkscape:window-y="0"
     inkscape:window-maximized="1"
     inkscape:current-layer="svg4" /><path
     d="M 250,0 C 387.97852,0 500,112.02148 500,250 500,387.97852 387.97852,500 250,500 112.02148,500 0,387.97852 0,250 0,112.02148 112.02148,0 250,0 Z m -44.03418,382.9668 c 110.62793,0 171.11719,-91.66993 171.11719,-171.11621 0,-2.61914 0,-5.23829 -0.125,-7.7334 11.72363,-8.48047 21.95117,-19.08203 30.05761,-31.17969 -10.72558,4.73926 -22.32519,7.98242 -34.54785,9.47852 12.47266,-7.4834 21.95118,-19.20704 26.44141,-33.29981 -11.59961,6.85938 -24.44531,11.84766 -38.16504,14.5918 -10.97559,-11.72364 -26.56543,-18.95703 -43.90137,-18.95703 -33.17578,0 -60.11523,26.93945 -60.11523,60.11523 0,4.73926 0.49902,9.35352 1.62109,13.71875 -50.01269,-2.49414 -94.28906,-26.44043 -123.97168,-62.85937 -5.11425,8.85546 -8.10742,19.20703 -8.10742,30.18261 0,20.82813 10.60156,39.28711 26.81543,50.0127 -9.85351,-0.24903 -19.08301,-2.99317 -27.18945,-7.48242 v 0.74804 c 0,29.18457 20.70312,53.37989 48.2666,58.99317 -4.98828,1.37109 -10.35156,2.12011 -15.83887,2.12011 -3.86719,0 -7.6084,-0.37402 -11.34961,-1.12304 7.60742,23.94629 29.80762,41.2832 56.12403,41.78125 -20.57911,16.08984 -46.52051,25.69336 -74.70801,25.69336 -4.86426,0 -9.60352,-0.25 -14.34277,-0.87305 26.3164,17.21094 57.99511,27.18848 91.91894,27.18848 z"
     id="path2"
     style="stroke-width:0.976562" /></svg>
